<mxfile host="app.diagrams.net" modified="2024-02-09T11:38:35.554Z" agent="Mozilla/5.0 (Windows NT 10.0; Win64; x64) AppleWebKit/537.36 (KHTML, like Gecko) Chrome/121.0.0.0 Safari/537.36" version="23.1.2" etag="547uL7yPNTgsTnL3axVx" type="github">
  <diagram name="Page-1" id="4z3ffXaXrZBaQQD0f9kf">
    <mxGraphModel>
      <root>
        <mxCell id="0" />
        <mxCell id="1" parent="0" />
      </root>
    </mxGraphModel>
  </diagram>
</mxfile>
